<svg width="18" height="21" viewBox="0 0 18 21" fill="none" xmlns="http://www.w3.org/2000/svg">
<path fill-rule="evenodd" clip-rule="evenodd" d="M8.53975 20.3626C8.56995 20.3801 8.59369 20.3936 8.6105 20.4031L8.63843 20.4187C8.8613 20.541 9.13776 20.5401 9.36084 20.4191L9.3895 20.4031C9.40631 20.3936 9.43005 20.3801 9.46025 20.3626C9.52066 20.3276 9.60697 20.2766 9.7155 20.2098C9.93246 20.0762 10.2388 19.8792 10.6046 19.6207C11.3351 19.1047 12.3097 18.339 13.2865 17.3389C15.2307 15.3484 17.25 12.3578 17.25 8.5116C17.25 3.95525 13.5563 0.261597 9 0.261597C4.44365 0.261597 0.75 3.95525 0.75 8.5116C0.75 12.3578 2.76932 15.3484 4.71346 17.3389C5.69025 18.339 6.66491 19.1047 7.39539 19.6207C7.76125 19.8792 8.06754 20.0762 8.2845 20.2098C8.39303 20.2766 8.47934 20.3276 8.53975 20.3626ZM9 11.5116C10.6569 11.5116 12 10.1685 12 8.5116C12 6.85474 10.6569 5.5116 9 5.5116C7.34315 5.5116 6 6.85474 6 8.5116C6 10.1685 7.34315 11.5116 9 11.5116Z" fill="#0F172A"/>
</svg>
